<svg xmlns="http://www.w3.org/2000/svg" viewBox="0 0 1200 900" role="img" aria-labelledby="title desc">
<title id="title">205 Degrees Smoke Shack logo</title><desc id="desc">Ember framed barbecue smoker over large 205 lettering and Smoke Shack banner.</desc>
<defs>
  <radialGradient id="glow" cx="50%" cy="45%" r="55%"><stop offset="0" stop-color="#f47a18" stop-opacity=".48"/><stop offset=".45" stop-color="#8b260e" stop-opacity=".18"/><stop offset="1" stop-color="#050403" stop-opacity="0"/></radialGradient>
  <linearGradient id="copper" x1="0" x2="1"><stop stop-color="#71300d"/><stop offset=".35" stop-color="#ff7a18"/><stop offset=".7" stop-color="#a83b10"/><stop offset="1" stop-color="#4b1808"/></linearGradient>
  <linearGradient id="cream" x1="0" x2="1" y1="0" y2="1"><stop stop-color="#fff1d2"/><stop offset=".52" stop-color="#caa46f"/><stop offset="1" stop-color="#6b4423"/></linearGradient>
  <filter id="shadow" x="-20%" y="-20%" width="140%" height="140%"><feDropShadow dx="0" dy="14" stdDeviation="10" flood-color="#000" flood-opacity=".85"/><feDropShadow dx="0" dy="0" stdDeviation="10" flood-color="#f47a18" flood-opacity=".25"/></filter>
  <pattern id="grit" width="18" height="18" patternUnits="userSpaceOnUse"><circle cx="4" cy="4" r="1.1" fill="#fff" opacity=".14"/><circle cx="14" cy="10" r="1" fill="#000" opacity=".23"/><circle cx="8" cy="16" r=".8" fill="#f47a18" opacity=".18"/></pattern>
</defs>
<rect width="1200" height="900" fill="none"/>
<g filter="url(#shadow)">
  <path d="M254 536V430c0-199 154-360 346-360s346 161 346 360v106h54l74 76v151H126V612l74-76h54Z" fill="#0a0705" stroke="url(#copper)" stroke-width="16"/>
  <path d="M273 529V430c0-188 146-340 327-340s327 152 327 340v99" fill="url(#glow)"/>
  <g opacity=".9">
    <path d="M405 300c-18-52 35-70 10-118 52 30 78 83 52 137 42-27 51-84 36-128 82 82 52 176-61 213 19-21 20-40 4-60-20 29-43 48-74 25 40-34 0-49 33-69Z" fill="#f24a12" opacity=".85"/>
    <path d="M473 285c10-34 2-57-20-89 75 51 107 135 23 189 14-28 14-64-3-100Z" fill="#ffb018" opacity=".82"/>
  </g>
  <g stroke="#d46a22" stroke-width="10" stroke-linejoin="round">
    <rect x="401" y="251" width="354" height="122" rx="56" fill="#16110c"/>
    <rect x="738" y="288" width="127" height="78" rx="33" fill="#15100c"/>
    <path d="M388 351h-78"/><path d="M488 371h187"/><path d="M842 330h49"/>
    <path d="M375 348V200h39v150" fill="#15100c"/>
    <circle cx="579" cy="283" r="27" fill="#e8d0aa"/><path d="M579 283l12-17" stroke="#101010" stroke-width="6"/>
  </g>
  <g font-family="Impact, 'Arial Black', sans-serif" font-weight="900" text-anchor="middle" stroke-linejoin="round">
    <text x="600" y="610" font-size="245" letter-spacing="-10" fill="#080604" stroke="#000" stroke-width="58">205</text>
    <text x="600" y="610" font-size="245" letter-spacing="-10" fill="url(#cream)" stroke="#d56b21" stroke-width="14">205</text>
    <text x="600" y="610" font-size="245" letter-spacing="-10" fill="url(#grit)" opacity=".8">205</text>
  </g>
  <path d="M256 656c220 37 468 37 688 0l-25 95c-204 30-434 30-638 0l-25-95Z" fill="url(#cream)" stroke="#090604" stroke-width="14"/>
  <path d="M284 685c204 28 428 28 632 0" fill="none" stroke="#563113" stroke-width="5" opacity=".65"/>
  <text x="600" y="728" text-anchor="middle" font-family="Impact, 'Arial Black', sans-serif" font-size="70" letter-spacing="17" fill="#120b07">SMOKE SHACK</text>
  <g transform="translate(600 801)" stroke="#bf641f" stroke-width="10" stroke-linecap="round"><path d="M-80 38L80-38"/><path d="M-88-22L88 42"/><path d="M-80 38l-18 22M80-38l20-18"/></g>
  <path d="M600 827c-12-24 12-31 2-54 25 16 35 42 13 64 19-14 22-35 15-53 35 40 11 77-30 91 8-12 8-21 0-31-10 15-20 24-36 12 22-18 1-27 36-29Z" fill="#f47a18"/>
</g>
</svg>
